<svg id="Layer_1" data-name="Layer 1" xmlns="http://www.w3.org/2000/svg" viewBox="0 0 1920 453"><defs><style>.cls-1,.cls-2,.cls-3{fill:#6f2232;}.cls-1{opacity:0.35;}.cls-2{opacity:0.65;}</style></defs><title>Untitled-5</title><path class="cls-1" d="M1920,684v67H0V298A2962.55,2962.55,0,0,0,637,580C1166,742.77,1630.8,722.13,1920,684Z" transform="translate(0 -298)"/><path class="cls-2" d="M1920,695v56H0V355A3101.78,3101.78,0,0,0,637,612C1163.77,759,1623.91,736.1,1920,695Z" transform="translate(0 -298)"/><path class="cls-3" d="M1920,706v45H0V394A3076.68,3076.68,0,0,0,631,640C1161.91,781.84,1624,751.77,1920,706Z" transform="translate(0 -298)"/></svg>