<svg id="Layer_1" data-name="Layer 1" xmlns="http://www.w3.org/2000/svg" viewBox="0 0 1920 453"><defs><style>.cls-1,.cls-2,.cls-3{fill:#6f2232;}.cls-1{opacity:0.35;}.cls-2{opacity:0.65;}</style></defs><title>Untitled-5</title><path class="cls-1" d="M0,396V329H1920V782a2962.55,2962.55,0,0,0-637-282C754,337.23,289.2,357.87,0,396Z" transform="translate(0 -329)"/><path class="cls-2" d="M0,385V329H1920V725a3101.78,3101.78,0,0,0-637-257C756.23,321,296.09,343.9,0,385Z" transform="translate(0 -329)"/><path class="cls-3" d="M0,374V329H1920V686a3076.68,3076.68,0,0,0-631-246C758.09,298.16,296,328.23,0,374Z" transform="translate(0 -329)"/></svg>